<?xml version="1.0" encoding="UTF-8" standalone="no"?>
<!DOCTYPE svg PUBLIC "-//W3C//DTD SVG 1.1//EN" "http://www.w3.org/Graphics/SVG/1.1/DTD/svg11.dtd">
<svg width="100%" height="100%" viewBox="0 0 541 544" version="1.1" xmlns="http://www.w3.org/2000/svg" xmlns:xlink="http://www.w3.org/1999/xlink" xml:space="preserve" xmlns:serif="http://www.serif.com/" style="fill-rule:evenodd;clip-rule:evenodd;stroke-linejoin:round;stroke-miterlimit:2;">
    <g transform="matrix(1,0,0,1,-249.751,-276.584)">
        <g transform="matrix(2.5,0,0,2.5,-560,-1405.19)">
            <path d="M460.486,763.937L425.733,833.442L404.267,833.442L323.9,672.709L350.733,672.709L384.347,739.937L445.653,739.937L479.267,672.709L529.267,672.709L537.95,690.076L497.416,690.076L472.486,739.937L510.635,739.937L516.499,751.665L459.416,866.076L528,866.076L540,890.076L432.584,890.076L426.584,878.076L483.653,763.937L460.486,763.937ZM396.347,763.937L415,801.243L433.653,763.937L396.347,763.937Z"/>
        </g>
    </g>
</svg>
